<svg width="150" height="150" xml:space="preserve" xmlns="http://www.w3.org/2000/svg"><g style="stroke:none;stroke-opacity:1;stroke-width:0;stroke-dasharray:none;stroke-dashoffset:0" fill="#fa0532" stroke-width=".535"><path d="M42.28 94.824v-1.102h1.04v-3.304h-1.04v-1.101h1.04v-2.202h2.081v2.202h1.04v-2.202h2.081v2.202h1.04v1.101h-1.04v3.304h1.04v1.102h-1.04v2.202h-2.08v-2.202h-1.04v2.202H43.32v-2.202zm4.161-1.102v-3.304h-1.04v3.304z" style="stroke:none;stroke-width:0;stroke-dasharray:none;stroke-dashoffset:0;stroke-opacity:1"/><path d="M100.487 94.824v-1.102h1.04v-3.304h-1.04v-1.101h1.04v-2.202h2.08v2.202h1.04v-2.202h2.081v2.202h1.04v1.101h-1.04v3.304h1.04v1.102h-1.04v2.202h-2.08v-2.202h-1.04v2.202h-2.081v-2.202zm4.16-1.102v-3.304h-1.04v3.304zm-70.738 18.723v-1.102h1.04v-3.304h-1.04v-1.1h1.04v-2.203h2.08v2.202h1.041v-2.202h2.08v2.202h1.04v1.101h-1.04v3.304h1.04v1.102h-1.04v2.202h-2.08v-2.202h-1.04v2.202h-2.08v-2.202zm4.161-1.102v-3.304h-1.04v3.304zm12.483 1.102v-1.102h1.04v-3.304h-1.04v-1.1h1.04v-2.203h2.081v2.202h1.04v-2.202h2.08v2.202h1.041v1.101h-1.04v3.304h1.04v1.102h-1.04v2.202h-2.08v-2.202h-1.04v2.202h-2.081v-2.202zm4.161-1.102v-3.304h-1.04v3.304z" style="stroke:none;stroke-opacity:1;stroke-width:0;stroke-dasharray:none;stroke-dashoffset:0"/><path d="M33.958 94.817v-1.102h1.04v-3.304h-1.04v-1.1h1.04v-2.203h2.081v2.202h1.04v-2.202h2.08v2.202h1.041v1.101H40.2v3.304h1.04v1.102H40.2v2.202h-2.08v-2.202h-1.041v2.202h-2.08v-2.202zm4.161-1.102v-3.304h-1.04v3.304zm12.484 1.105v-1.1h1.04v-3.304h-1.04v-1.101h1.04V87.11h2.08v2.203h1.04V87.11h2.081v2.203h1.04v1.1h-1.04v3.305h1.04v1.101h-1.04v2.203h-2.08V94.82h-1.04v2.203h-2.081V94.82zm4.16-1.101v-3.304h-1.04v3.304z" style="stroke:none;stroke-width:0;stroke-dasharray:none;stroke-dashoffset:0;stroke-opacity:1"/><path d="M92.164 112.445v-1.102h1.04v-3.304h-1.04v-1.1h1.04v-2.203h2.081v2.202h1.04v-2.202h2.08v2.202h1.041v1.101h-1.04v3.304h1.04v1.102h-1.04v2.202h-2.08v-2.202h-1.04v2.202h-2.081v-2.202zm4.161-1.102v-3.304h-1.04v3.304zm12.485 1.102v-1.102h1.04v-3.304h-1.04v-1.1h1.04v-2.203h2.08v2.202h1.04v-2.202h2.08v2.202h1.041v1.101h-1.04v3.304h1.04v1.102h-1.04v2.202h-2.08v-2.202h-1.041v2.202h-2.08v-2.202zm4.16-1.102v-3.304h-1.04v3.304z" style="stroke:none;stroke-opacity:1;stroke-width:0;stroke-dasharray:none;stroke-dashoffset:0"/><path d="M92.146 94.857v-1.101h1.04v-3.304h-1.04V89.35h1.04v-2.203h2.08v2.203h1.041v-2.203h2.08v2.203h1.04v1.1h-1.04v3.305h1.04v1.101h-1.04v2.203h-2.08v-2.203h-1.04v2.203h-2.08v-2.203zm4.161-1.101v-3.304h-1.04v3.304zm12.483 1.101v-1.101h1.041v-3.304h-1.04V89.35h1.04v-2.203h2.08v2.203h1.041v-2.203h2.08v2.203h1.04v1.1h-1.04v3.305h1.04v1.101h-1.04v2.203h-2.08v-2.203h-1.04v2.203h-2.08v-2.203zm4.162-1.101v-3.304h-1.04v3.304z" style="stroke:none;stroke-width:0;stroke-dasharray:none;stroke-dashoffset:0;stroke-opacity:1"/><path d="M33.909 130.064v-1.102h1.04v-3.303h-1.04v-1.102h1.04v-2.202h2.08v2.202h1.041v-2.202h2.08v2.202h1.04v1.102h-1.04v3.303h1.04v1.102h-1.04v2.202h-2.08v-2.202h-1.04v2.202h-2.08v-2.202zm4.161-1.102v-3.303h-1.04v3.303zm4.161 1.102v-1.102h1.04v-3.303h-1.04v-1.102h1.04v-2.202h2.08v2.202h1.041v-2.202h2.08v2.202h1.04v1.102h-1.04v3.303h1.04v1.102h-1.04v2.202h-2.08v-2.202h-1.04v2.202h-2.08v-2.202zm4.161-1.102v-3.303h-1.04v3.303zm4.161 1.102v-1.102h1.04v-3.303h-1.04v-1.102h1.04v-2.202h2.081v2.202h1.04v-2.202h2.08v2.202h1.041v1.102h-1.04v3.303h1.04v1.102h-1.04v2.202h-2.08v-2.202h-1.04v2.202h-2.081v-2.202zm4.161-1.102v-3.303h-1.04v3.303zm4.162 1.102v-1.102h1.04v-3.303h-1.04v-1.102h1.04v-2.202h2.081v2.202h1.04v-2.202h2.08v2.202h1.041v1.102h-1.04v3.303h1.04v1.102h-1.04v2.202h-2.08v-2.202h-1.04v2.202h-2.081v-2.202zm4.161-1.102v-3.303h-1.04v3.303zm4.16 1.102v-1.102h1.04v-3.303h-1.04v-1.102h1.04v-2.202h2.08v2.202h1.041v-2.202h2.08v2.202h1.04v1.102h-1.04v3.303h1.04v1.102h-1.04v2.202h-2.08v-2.202h-1.04v2.202h-2.08v-2.202zm4.16-1.102v-3.303h-1.04v3.303zm4.163 1.102v-1.102h1.04v-3.303h-1.04v-1.102h1.04v-2.202h2.08v2.202h1.04v-2.202h2.08v2.202h1.041v1.102h-1.04v3.303h1.04v1.102h-1.04v2.202h-2.08v-2.202h-1.04v2.202H76.56v-2.202zm4.16-1.102v-3.303h-1.04v3.303zm4.162 1.102v-1.102h1.04v-3.303h-1.04v-1.102h1.04v-2.202h2.08v2.202h1.04v-2.202h2.081v2.202h1.04v1.102h-1.04v3.303h1.04v1.102h-1.04v2.202h-2.08v-2.202h-1.04v2.202h-2.08v-2.202zm4.16-1.102v-3.303h-1.04v3.303zm4.162 1.102v-1.102h1.04v-3.303h-1.04v-1.102h1.04v-2.202h2.081v2.202h1.04v-2.202h2.08v2.202h1.041v1.102h-1.04v3.303h1.04v1.102h-1.04v2.202h-2.08v-2.202h-1.04v2.202h-2.081v-2.202zm4.161-1.102v-3.303h-1.04v3.303z" style="stroke:none;stroke-opacity:1;stroke-width:0;stroke-dasharray:none;stroke-dashoffset:0"/><path d="M33.906 77.206v-1.101h1.04V72.8h-1.04v-1.1h1.04v-2.203h2.08V71.7h1.041v-2.203h2.08V71.7h1.04v1.1h-1.04v3.305h1.04v1.101h-1.04v2.203h-2.08v-2.203h-1.04v2.203h-2.08v-2.203zm4.161-1.101V72.8h-1.04v3.304zm4.161 1.101v-1.101h1.04V72.8h-1.04v-1.1h1.04v-2.203h2.08V71.7h1.041v-2.203h2.08V71.7h1.041v1.1h-1.04v3.305h1.04v1.101h-1.04v2.203h-2.08v-2.203h-1.041v2.203h-2.08v-2.203zm4.161-1.101V72.8h-1.04v3.304zm4.161 1.101v-1.101h1.04V72.8h-1.04v-1.1h1.04v-2.203h2.081V71.7h1.04v-2.203h2.08V71.7h1.041v1.1h-1.04v3.305h1.04v1.101h-1.04v2.203h-2.08v-2.203h-1.04v2.203H51.59v-2.203zm4.161-1.101V72.8h-1.04v3.304zm4.162 1.101v-1.101h1.04V72.8h-1.04v-1.1h1.04v-2.203h2.081V71.7h1.04v-2.203h2.081V71.7h1.04v1.1h-1.04v3.305h1.04v1.101h-1.04v2.203h-2.08v-2.203h-1.04v2.203h-2.081v-2.203zm4.161-1.101V72.8h-1.04v3.304zm4.16 1.101v-1.101h1.04V72.8h-1.04v-1.1h1.04v-2.203h2.08V71.7h1.041v-2.203h2.08V71.7h1.04v1.1h-1.04v3.305h1.04v1.101h-1.04v2.203h-2.08v-2.203h-1.04v2.203h-2.08v-2.203zm4.161-1.101V72.8h-1.04v3.304zm4.161 1.101v-1.101h1.04V72.8h-1.04v-1.1h1.04v-2.203h2.081V71.7h1.04v-2.203h2.081V71.7h1.04v1.1h-1.04v3.305h1.04v1.101h-1.04v2.203h-2.08v-2.203h-1.04v2.203h-2.081v-2.203zm4.161-1.101V72.8h-1.04v3.304zm4.162 1.101v-1.101h1.04V72.8h-1.04v-1.1h1.04v-2.203h2.08V71.7H88v-2.203h2.081V71.7h1.04v1.1h-1.04v3.305h1.04v1.101h-1.04v2.203H88v-2.203h-1.04v2.203h-2.08v-2.203zm4.16-1.101V72.8h-1.04v3.304zm4.162 1.101v-1.101h1.04V72.8h-1.04v-1.1h1.04v-2.203h2.081V71.7h1.04v-2.203h2.08V71.7h1.041v1.1h-1.04v3.305h1.04v1.101h-1.04v2.203h-2.08v-2.203h-1.04v2.203h-2.081v-2.203zm4.161-1.101V72.8h-1.04v3.304zM33.906 25.439v-1.101h1.04v-3.304h-1.04v-1.101h1.04V17.73h2.08v2.203h1.041V17.73h2.08v2.203h1.04v1.1h-1.04v3.305h1.04v1.101h-1.04v2.203h-2.08v-2.203h-1.04v2.203h-2.08v-2.203zm4.161-1.101v-3.304h-1.04v3.304zm4.161 1.101v-1.101h1.04v-3.304h-1.04v-1.101h1.04V17.73h2.08v2.203h1.041V17.73h2.08v2.203h1.041v1.1h-1.04v3.305h1.04v1.101h-1.04v2.203h-2.08v-2.203h-1.041v2.203h-2.08v-2.203zm4.161-1.101v-3.304h-1.04v3.304zm4.161 1.101v-1.101h1.04v-3.304h-1.04v-1.101h1.04V17.73h2.081v2.203h1.04V17.73h2.08v2.203h1.041v1.1h-1.04v3.305h1.04v1.101h-1.04v2.203h-2.08v-2.203h-1.04v2.203H51.59v-2.203zm4.161-1.101v-3.304h-1.04v3.304zm4.162 1.101v-1.101h1.04v-3.304h-1.04v-1.101h1.04V17.73h2.081v2.203h1.04V17.73h2.081v2.203h1.04v1.1h-1.04v3.305h1.04v1.101h-1.04v2.203h-2.08v-2.203h-1.04v2.203h-2.081v-2.203zm4.161-1.101v-3.304h-1.04v3.304zm4.16 1.101v-1.101h1.04v-3.304h-1.04v-1.101h1.04V17.73h2.08v2.203h1.041V17.73h2.08v2.203h1.04v1.1h-1.04v3.305h1.04v1.101h-1.04v2.203h-2.08v-2.203h-1.04v2.203h-2.08v-2.203zm4.161-1.101v-3.304h-1.04v3.304zm4.161 1.101v-1.101h1.04v-3.304h-1.04v-1.101h1.04V17.73h2.081v2.203h1.04V17.73h2.081v2.203h1.04v1.1h-1.04v3.305h1.04v1.101h-1.04v2.203h-2.08v-2.203h-1.04v2.203h-2.081v-2.203zm4.161-1.101v-3.304h-1.04v3.304zm4.162 1.101v-1.101h1.04v-3.304h-1.04v-1.101h1.04V17.73h2.08v2.203H88V17.73h2.081v2.203h1.04v1.1h-1.04v3.305h1.04v1.101h-1.04v2.203H88v-2.203h-1.04v2.203h-2.08v-2.203zm4.16-1.101v-3.304h-1.04v3.304zm4.162 1.101v-1.101h1.04v-3.304h-1.04v-1.101h1.04V17.73h2.081v2.203h1.04V17.73h2.08v2.203h1.041v1.1h-1.04v3.305h1.04v1.101h-1.04v2.203h-2.08v-2.203h-1.04v2.203h-2.081v-2.203zm4.161-1.101v-3.304h-1.04v3.304z" style="stroke:none;stroke-width:0;stroke-dasharray:none;stroke-dashoffset:0;stroke-opacity:1"/><path d="M100.487 130.064v-1.102h1.04v-3.303h-1.04v-1.102h1.04v-2.202h2.08v2.202h1.04v-2.202h2.081v2.202h1.04v1.102h-1.04v3.303h1.04v1.102h-1.04v2.202h-2.08v-2.202h-1.04v2.202h-2.081v-2.202zm4.16-1.102v-3.303h-1.04v3.303z" style="stroke:none;stroke-opacity:1;stroke-width:0;stroke-dasharray:none;stroke-dashoffset:0"/><path d="M100.487 112.447v-1.101h1.04v-3.304h-1.04v-1.101h1.04v-2.203h2.08v2.203h1.04v-2.203h2.081v2.203h1.04v1.1h-1.04v3.305h1.04v1.101h-1.04v2.203h-2.08v-2.203h-1.04v2.203h-2.081v-2.203zm4.16-1.101v-3.304h-1.04v3.304zm-62.416 1.117v-1.101h1.04v-3.304h-1.04v-1.101h1.04v-2.203h2.08v2.203h1.041v-2.203h2.08v2.203h1.041v1.1h-1.04v3.305h1.04v1.101h-1.04v2.203h-2.08v-2.203h-1.041v2.203h-2.08v-2.203zm4.161-1.101v-3.304h-1.04v3.304zm-4.115-68.296v-1.101h1.04V38.66h-1.04v-1.102h1.04v-2.202h2.081v2.202h1.04v-2.202h2.081v2.202h1.04v1.102h-1.04v3.304h1.04v1.101h-1.04v2.203h-2.08v-2.203h-1.04v2.203h-2.081v-2.203zm4.161-1.101V38.66h-1.04v3.304zm54.046 1.101v-1.101h1.04V38.66h-1.04v-1.102h1.04v-2.202h2.08v2.202h1.04v-2.202h2.081v2.202h1.04v1.102h-1.04v3.304h1.04v1.101h-1.04v2.203h-2.08v-2.203h-1.04v2.203h-2.081v-2.203zm4.16-1.101V38.66h-1.04v3.304zM33.906 60.687v-1.101h1.04v-3.304h-1.04V55.18h1.04v-2.203h2.08v2.203h1.041v-2.203h2.08v2.203h1.04v1.1h-1.04v3.305h1.04v1.101h-1.04v2.203h-2.08v-2.203h-1.04v2.203h-2.08v-2.203zm4.161-1.101v-3.304h-1.04v3.304zm12.483 1.101v-1.101h1.04v-3.304h-1.04V55.18h1.04v-2.203h2.081v2.203h1.04v-2.203h2.08v2.203h1.041v1.1h-1.04v3.305h1.04v1.101h-1.04v2.203h-2.08v-2.203h-1.04v2.203H51.59v-2.203zm4.161-1.101v-3.304h-1.04v3.304zM33.955 43.059v-1.101h1.04v-3.304h-1.04v-1.101h1.04V35.35h2.081v2.203h1.04V35.35h2.08v2.203h1.041v1.1h-1.04v3.305h1.04v1.101h-1.04v2.203h-2.08v-2.203h-1.04v2.203h-2.081v-2.203zm4.161-1.101v-3.304h-1.04v3.304zM50.6 43.062v-1.1h1.04v-3.305H50.6v-1.101h1.04v-2.203h2.08v2.203h1.04v-2.203h2.081v2.203h1.04v1.101h-1.04v3.304h1.04v1.101h-1.04v2.203h-2.08v-2.203h-1.04v2.203H51.64v-2.203zm4.16-1.1v-3.305h-1.04v3.304zm37.401 18.725v-1.101h1.04v-3.304h-1.04V55.18h1.04v-2.203h2.081v2.203h1.04v-2.203h2.08v2.203h1.041v1.1h-1.04v3.305h1.04v1.101h-1.04v2.203h-2.08v-2.203h-1.04v2.203h-2.081v-2.203zm4.161-1.101v-3.304h-1.04v3.304zm12.484 1.101v-1.101h1.04v-3.304h-1.04V55.18h1.04v-2.203h2.081v2.203h1.04v-2.203h2.08v2.203h1.041v1.1h-1.04v3.305h1.04v1.101h-1.04v2.203h-2.08v-2.203h-1.041v2.203h-2.08v-2.203zm4.161-1.101v-3.304h-1.04v3.304zM92.143 43.1v-1.102h1.04v-3.304h-1.04v-1.101h1.04V35.39h2.08v2.203h1.041V35.39h2.08v2.203h1.04v1.101h-1.04v3.304h1.04V43.1h-1.04v2.203h-2.08V43.1h-1.04v2.203h-2.08V43.1zm4.161-1.102v-3.304h-1.04v3.304zm12.484 1.102v-1.102h1.04v-3.304h-1.04v-1.101h1.04V35.39h2.08v2.203h1.041V35.39h2.08v2.203h1.04v1.101h-1.04v3.304h1.04V43.1h-1.04v2.203h-2.08V43.1h-1.04v2.203h-2.08V43.1zm4.161-1.102v-3.304h-1.04v3.304zM100.484 60.69v-1.102h1.04v-3.304h-1.04v-1.101h1.04V52.98h2.08v2.203h1.04V52.98h2.081v2.203h1.04v1.101h-1.04v3.304h1.04v1.101h-1.04v2.203h-2.08v-2.203h-1.04v2.203h-2.081v-2.203zm4.16-1.102v-3.304h-1.04v3.304zm-62.416 1.117v-1.1h1.04V56.3h-1.04v-1.1h1.04v-2.203h2.081V55.2h1.04v-2.203h2.08V55.2h1.041v1.1h-1.04v3.304h1.04v1.101h-1.04v2.203h-2.08v-2.203h-1.041v2.203h-2.08v-2.203zm4.161-1.1V56.3h-1.04v3.304z" style="stroke:none;stroke-width:0;stroke-dasharray:none;stroke-dashoffset:0;stroke-opacity:1"/></g></svg>